<?xml version="1.0" encoding="UTF-8"?>
<svg id="a" data-name="Layer 1" xmlns="http://www.w3.org/2000/svg" viewBox="0 0 1919.59 107.02">
  <path d="M1600.79,107.02h-2.4c-.96-.16-1.91-.43-2.87-.46-15.42-.53-30.17-4.01-43.77-11.19-33.52-17.72-53.15-45.35-58.28-83.01-.05-.35-.32-.68-.49-1.02-.15,.32-.39,.62-.42,.95-4.71,46.09-42.06,85.54-87.97,92.8-5.6,.89-11.27,1.3-16.91,1.93-.88,0-1.76,0-2.64,0-2.22-.24-4.43-.54-6.65-.7-26.41-2.01-49.03-12.46-67.68-31.07-17.56-17.52-27.65-38.84-30.51-63.5-.05-.4-.26-.78-.39-1.16-.13,.38-.34,.76-.38,1.16-4.88,46.9-41.67,85.84-88.33,93.37-5.47,.88-11.02,1.29-16.54,1.91h-2.64c-2.19-.23-4.37-.54-6.56-.69-51.02-3.64-92.53-43.32-98.29-93.95-.05-.42-.25-.83-.38-1.24-.19,.41-.51,.81-.56,1.25-6.08,48.25-41.64,85.16-89.69,92.98-4.96,.81-9.99,1.12-14.99,1.66h-2.64c-2.19-.23-4.37-.54-6.57-.69-50.98-3.59-92.64-43.34-98.33-93.81-.05-.41-.36-.79-.55-1.18-.14,.38-.36,.75-.41,1.15-5.4,46.87-41.64,84.95-88.31,92.65-5.47,.9-11.04,1.27-16.56,1.88h-2.64c-.51-.16-1.02-.45-1.53-.46-15.52-.28-30.39-3.67-44.11-10.79-34.27-17.77-54.15-45.84-59.22-84.18-.04-.33-.21-.63-.32-.95-.14,.29-.37,.57-.4,.88-5.2,47.57-41.3,85.82-88.48,93.61-5.43,.9-10.95,1.28-16.42,1.9h-2.64c-3.61-.35-7.25-.56-10.84-1.06-51.1-7.21-86.6-42.56-93.96-93.49-.09-.6-.28-1.19-.42-1.79-.2,.64-.5,1.27-.57,1.92-5.19,46.49-41.84,85.01-88.15,92.5-5.47,.89-11.02,1.29-16.53,1.91h-2.64c-3.22-.31-6.44-.66-9.67-.94-48.79-4.2-90.05-44.74-95.22-93.55-.04-.37-.31-.73-.48-1.09-.16,.36-.43,.71-.47,1.09-4.88,46.08-42.06,85.26-87.97,92.55-5.6,.89-11.27,1.3-16.91,1.93h-2.64c-2.1-.23-4.2-.53-6.3-.69C54.25,102.98,16.38,72.11,4.31,28.46,2.6,22.28,1.73,15.86,.47,9.56-1.28,1.59,1.84,0,9.83,0,645.51,.24,1281.19,.22,1916.87,.33c.88,0,2.36,1.55,2.52,2.54,.38,2.33,.12,4.77,.12,7.16-.16,.39-.43,.76-.47,1.16-5.09,48.06-41.73,86.6-89.56,94.11-5.08,.8-10.22,1.15-15.34,1.71-.88,0-1.76,0-2.64,0-3.1-.31-6.2-.65-9.31-.93-49.4-4.47-90.32-44.54-95.56-93.57-.04-.41-.29-.79-.44-1.19-.18,.42-.46,.83-.51,1.26-5.22,46.5-41.89,85.05-88.11,92.51-5.55,.9-11.19,1.29-16.79,1.92Z"/>
</svg>