<?xml version="1.0" encoding="UTF-8"?>
<svg id="a" data-name="Layer 1" xmlns="http://www.w3.org/2000/svg" viewBox="0 0 1919.59 107.02">
  <path d="M318.8,0h2.4c.96,.16,1.91,.43,2.87,.46,15.42,.53,30.17,4.01,43.77,11.19,33.52,17.72,53.15,45.35,58.28,83.01,.05,.35,.32,.68,.49,1.02,.15-.32,.39-.62,.42-.95,4.71-46.09,42.06-85.54,87.97-92.8C520.61,1.05,526.29,.63,531.92,0c.88,0,1.76,0,2.64,0,2.22,.24,4.43,.54,6.65,.7,26.41,2.01,49.03,12.46,67.68,31.07,17.56,17.52,27.65,38.84,30.51,63.5,.05,.4,.26,.78,.39,1.16,.13-.38,.34-.76,.38-1.16,4.88-46.9,41.67-85.84,88.33-93.37,5.47-.88,11.02-1.29,16.54-1.91h2.64c2.19,.23,4.37,.54,6.56,.69,51.02,3.64,92.53,43.32,98.29,93.95,.05,.42,.25,.83,.38,1.24,.19-.41,.51-.81,.56-1.25,6.08-48.25,41.64-85.16,89.69-92.98,4.96-.81,9.99-1.12,14.99-1.66h2.64c2.19,.23,4.37,.54,6.57,.69,50.98,3.59,92.64,43.34,98.33,93.81,.05,.41,.36,.79,.55,1.18,.14-.38,.36-.75,.41-1.15,5.4-46.87,41.64-84.95,88.31-92.65,5.47-.9,11.04-1.27,16.56-1.88h2.64c.51,.16,1.02,.45,1.53,.46,15.52,.28,30.39,3.67,44.11,10.79,34.27,17.77,54.15,45.84,59.22,84.18,.04,.33,.21,.63,.32,.95,.14-.29,.37-.57,.4-.88,5.2-47.57,41.3-85.82,88.48-93.61,5.43-.9,10.95-1.28,16.42-1.9h2.64c3.61,.35,7.25,.56,10.84,1.06,51.1,7.21,86.6,42.56,93.96,93.49,.09,.6,.28,1.19,.42,1.79,.2-.64,.5-1.27,.57-1.92,5.19-46.49,41.84-85.01,88.15-92.5,5.47-.89,11.02-1.29,16.53-1.91h2.64c3.22,.31,6.44,.66,9.67,.94,48.79,4.2,90.05,44.74,95.22,93.55,.04,.37,.31,.73,.48,1.09,.16-.36,.43-.71,.47-1.09,4.88-46.08,42.06-85.26,87.97-92.55,5.6-.89,11.27-1.3,16.91-1.93h2.64c2.1,.23,4.2,.53,6.3,.69,45.28,3.34,83.15,34.22,95.22,77.86,1.71,6.18,2.58,12.6,3.84,18.91,1.75,7.97-1.37,9.56-9.36,9.56-635.68-.24-1271.36-.22-1907.04-.33-.88,0-2.36-1.55-2.52-2.54-.38-2.33-.12-4.77-.12-7.16,.16-.39,.43-.76,.47-1.16C5.65,47.76,42.28,9.21,90.11,1.71,95.18,.91,100.33,.56,105.44,0c.88,0,1.76,0,2.64,0,3.1,.31,6.2,.65,9.31,.93,49.4,4.47,90.32,44.54,95.56,93.57,.04,.41,.29,.79,.44,1.19,.18-.42,.46-.83,.51-1.26C219.13,47.93,255.8,9.37,302.02,1.92c5.55-.9,11.19-1.29,16.79-1.92Z"/>
</svg>